<svg width="22" height="20" viewBox="0 0 22 20" fill="none" xmlns="http://www.w3.org/2000/svg">
<g id="Group 164">
<path id="Vector" d="M10.241 8.71433C10.4639 8.86279 10.7287 8.94235 11 8.94235C11.2713 8.94235 11.5361 8.86279 11.759 8.71433L20.8868 2.14456C20.9492 2.09775 21.0003 2.03862 21.0368 1.97118C21.0733 1.90373 21.0942 1.82955 21.0982 1.75366C21.1021 1.67778 21.089 1.60196 21.0598 1.53135C21.0305 1.46074 20.9858 1.397 20.9286 1.34444C20.3222 0.804972 19.5269 0.503608 18.7 0.5H3.29999C2.47311 0.503608 1.67777 0.804972 1.07139 1.34444C1.01158 1.39666 0.964564 1.46093 0.933706 1.53265C0.902847 1.60437 0.888916 1.68175 0.892912 1.75924C0.896908 1.83674 0.918731 1.91242 0.956817 1.98087C0.994902 2.04931 1.04831 2.10882 1.11319 2.15511L10.241 8.71433Z" fill="#5F00D9"/>
<path id="Vector_2" d="M13.0768 10.4011C12.474 10.8239 11.7466 11.0517 11 11.0517C10.2534 11.0517 9.52605 10.8239 8.9232 10.4011L0.88 4.61459C0.798287 4.55578 0.701122 4.51997 0.599393 4.51117C0.497664 4.50236 0.395391 4.52092 0.304033 4.56475C0.212674 4.60859 0.135841 4.67597 0.0821421 4.75934C0.0284431 4.84272 0 4.9388 0 5.03681L0 16.3334C0 17.1732 0.347678 17.9787 0.966548 18.5725C1.58542 19.1664 2.42479 19.5 3.3 19.5H18.7C19.5752 19.5 20.4146 19.1664 21.0335 18.5725C21.6523 17.9787 22 17.1732 22 16.3334V5.03681C22 4.9388 21.9716 4.84272 21.9179 4.75934C21.8642 4.67597 21.7873 4.60859 21.696 4.56475C21.6046 4.52092 21.5023 4.50236 21.4006 4.51117C21.2989 4.51997 21.2017 4.55578 21.12 4.61459L13.0768 10.4011Z" fill="#5F00D9"/>
</g>
</svg>
